<?xml version="1.0" encoding="UTF-8" standalone="no"?>
<!DOCTYPE svg PUBLIC "-//W3C//DTD SVG 1.1//EN"
 "http://www.w3.org/Graphics/SVG/1.1/DTD/svg11.dtd">
<!-- Generated by graphviz version 2.38.0 (20140413.2041)
 -->
<!-- Title: %3 Pages: 1 -->
<svg width="1250pt" height="188pt"
 viewBox="0.00 0.00 1250.14 188.00" xmlns="http://www.w3.org/2000/svg" xmlns:xlink="http://www.w3.org/1999/xlink">
<g id="graph0" class="graph" transform="scale(1 1) rotate(0) translate(4 184)">
<title>%3</title>
<polygon fill="white" stroke="none" points="-4,4 -4,-184 1246.14,-184 1246.14,4 -4,4"/>
<!-- 1 -->
<g id="node1" class="node"><title>1</title>
<ellipse fill="none" stroke="black" cx="588.046" cy="-162" rx="59.5901" ry="18"/>
<text text-anchor="middle" x="588.046" y="-158.3" font-family="Times New Roman,serif" font-size="14.00">wannacry.exe</text>
</g>
<!-- 2 -->
<g id="node2" class="node"><title>2</title>
<ellipse fill="none" stroke="black" cx="50.0456" cy="-90" rx="41.6928" ry="18"/>
<text text-anchor="middle" x="50.0456" y="-86.3" font-family="Times New Roman,serif" font-size="14.00">cmd.exe</text>
</g>
<!-- 1&#45;&gt;2 -->
<g id="edge1" class="edge"><title>1&#45;&gt;2</title>
<path fill="none" stroke="black" d="M528.922,-158.632C436.62,-154.027 253.097,-141.217 101.046,-108 97.461,-107.217 93.7747,-106.273 90.1024,-105.237"/>
<polygon fill="black" stroke="black" points="91.0793,-101.876 80.4939,-102.325 89.0486,-108.575 91.0793,-101.876"/>
</g>
<!-- 3 -->
<g id="node3" class="node"><title>3</title>
<ellipse fill="none" stroke="black" cx="197.046" cy="-90" rx="87.1846" ry="18"/>
<text text-anchor="middle" x="197.046" y="-86.3" font-family="Times New Roman,serif" font-size="14.00">!wannadecryptor.exe</text>
</g>
<!-- 1&#45;&gt;3 -->
<g id="edge2" class="edge"><title>1&#45;&gt;3</title>
<path fill="none" stroke="black" d="M538.128,-152.063C470.448,-139.947 349.066,-118.216 270.844,-104.212"/>
<polygon fill="black" stroke="black" points="271.038,-100.691 260.578,-102.374 269.805,-107.582 271.038,-100.691"/>
</g>
<!-- 4 -->
<g id="node4" class="node"><title>4</title>
<ellipse fill="none" stroke="black" cx="352.046" cy="-90" rx="50.0912" ry="18"/>
<text text-anchor="middle" x="352.046" y="-86.3" font-family="Times New Roman,serif" font-size="14.00">taskkill.exe</text>
</g>
<!-- 1&#45;&gt;4 -->
<g id="edge3" class="edge"><title>1&#45;&gt;4</title>
<path fill="none" stroke="black" d="M546.937,-148.807C505.771,-136.597 442.491,-117.827 399.283,-105.011"/>
<polygon fill="black" stroke="black" points="400.153,-101.619 389.571,-102.13 398.163,-108.33 400.153,-101.619"/>
</g>
<!-- 5 -->
<g id="node5" class="node"><title>5</title>
<ellipse fill="none" stroke="black" cx="470.046" cy="-90" rx="50.0912" ry="18"/>
<text text-anchor="middle" x="470.046" y="-86.3" font-family="Times New Roman,serif" font-size="14.00">taskkill.exe</text>
</g>
<!-- 1&#45;&gt;5 -->
<g id="edge4" class="edge"><title>1&#45;&gt;5</title>
<path fill="none" stroke="black" d="M562.15,-145.638C545.009,-135.47 522.357,-122.032 503.806,-111.028"/>
<polygon fill="black" stroke="black" points="505.458,-107.938 495.071,-105.846 501.886,-113.958 505.458,-107.938"/>
</g>
<!-- 6 -->
<g id="node6" class="node"><title>6</title>
<ellipse fill="none" stroke="black" cx="588.046" cy="-90" rx="50.0912" ry="18"/>
<text text-anchor="middle" x="588.046" y="-86.3" font-family="Times New Roman,serif" font-size="14.00">taskkill.exe</text>
</g>
<!-- 1&#45;&gt;6 -->
<g id="edge5" class="edge"><title>1&#45;&gt;6</title>
<path fill="none" stroke="black" d="M588.046,-143.697C588.046,-135.983 588.046,-126.712 588.046,-118.112"/>
<polygon fill="black" stroke="black" points="591.546,-118.104 588.046,-108.104 584.546,-118.104 591.546,-118.104"/>
</g>
<!-- 7 -->
<g id="node7" class="node"><title>7</title>
<ellipse fill="none" stroke="black" cx="706.046" cy="-90" rx="50.0912" ry="18"/>
<text text-anchor="middle" x="706.046" y="-86.3" font-family="Times New Roman,serif" font-size="14.00">taskkill.exe</text>
</g>
<!-- 1&#45;&gt;7 -->
<g id="edge6" class="edge"><title>1&#45;&gt;7</title>
<path fill="none" stroke="black" d="M613.941,-145.638C631.082,-135.47 653.734,-122.032 672.285,-111.028"/>
<polygon fill="black" stroke="black" points="674.205,-113.958 681.02,-105.846 670.633,-107.938 674.205,-113.958"/>
</g>
<!-- 8 -->
<g id="node8" class="node"><title>8</title>
<ellipse fill="none" stroke="black" cx="861.046" cy="-90" rx="87.1846" ry="18"/>
<text text-anchor="middle" x="861.046" y="-86.3" font-family="Times New Roman,serif" font-size="14.00">!wannadecryptor.exe</text>
</g>
<!-- 1&#45;&gt;8 -->
<g id="edge7" class="edge"><title>1&#45;&gt;8</title>
<path fill="none" stroke="black" d="M631.908,-149.753C676.984,-138.195 747.579,-120.094 798.502,-107.037"/>
<polygon fill="black" stroke="black" points="799.594,-110.37 808.411,-104.496 797.855,-103.59 799.594,-110.37"/>
</g>
<!-- 9 -->
<g id="node9" class="node"><title>9</title>
<ellipse fill="none" stroke="black" cx="1008.05" cy="-90" rx="41.6928" ry="18"/>
<text text-anchor="middle" x="1008.05" y="-86.3" font-family="Times New Roman,serif" font-size="14.00">cmd.exe</text>
</g>
<!-- 1&#45;&gt;9 -->
<g id="edge8" class="edge"><title>1&#45;&gt;9</title>
<path fill="none" stroke="black" d="M644.582,-156.055C717.5,-148.955 847.928,-133.803 957.046,-108 960.464,-107.192 963.98,-106.253 967.491,-105.241"/>
<polygon fill="black" stroke="black" points="968.751,-108.516 977.286,-102.238 966.699,-101.823 968.751,-108.516"/>
</g>
<!-- 10 -->
<g id="node10" class="node"><title>10</title>
<ellipse fill="none" stroke="black" cx="1155.05" cy="-90" rx="87.1846" ry="18"/>
<text text-anchor="middle" x="1155.05" y="-86.3" font-family="Times New Roman,serif" font-size="14.00">!wannadecryptor.exe</text>
</g>
<!-- 1&#45;&gt;10 -->
<g id="edge9" class="edge"><title>1&#45;&gt;10</title>
<path fill="none" stroke="black" d="M644.382,-155.822C732.885,-147.427 909.808,-129.588 1059.05,-108 1066.7,-106.893 1074.68,-105.639 1082.63,-104.326"/>
<polygon fill="black" stroke="black" points="1083.37,-107.75 1092.65,-102.638 1082.21,-100.848 1083.37,-107.75"/>
</g>
<!-- 11 -->
<g id="node11" class="node"><title>11</title>
<ellipse fill="none" stroke="black" cx="50.0456" cy="-18" rx="50.0912" ry="18"/>
<text text-anchor="middle" x="50.0456" y="-14.3" font-family="Times New Roman,serif" font-size="14.00">cscript.exe</text>
</g>
<!-- 2&#45;&gt;11 -->
<g id="edge10" class="edge"><title>2&#45;&gt;11</title>
<path fill="none" stroke="black" d="M50.0456,-71.6966C50.0456,-63.9827 50.0456,-54.7125 50.0456,-46.1124"/>
<polygon fill="black" stroke="black" points="53.5457,-46.1043 50.0456,-36.1043 46.5457,-46.1044 53.5457,-46.1043"/>
</g>
<!-- 12 -->
<g id="node12" class="node"><title>12</title>
<ellipse fill="none" stroke="black" cx="1008.05" cy="-18" rx="87.1846" ry="18"/>
<text text-anchor="middle" x="1008.05" y="-14.3" font-family="Times New Roman,serif" font-size="14.00">!wannadecryptor.exe</text>
</g>
<!-- 9&#45;&gt;12 -->
<g id="edge11" class="edge"><title>9&#45;&gt;12</title>
<path fill="none" stroke="black" d="M1008.05,-71.6966C1008.05,-63.9827 1008.05,-54.7125 1008.05,-46.1124"/>
<polygon fill="black" stroke="black" points="1011.55,-46.1043 1008.05,-36.1043 1004.55,-46.1044 1011.55,-46.1043"/>
</g>
</g>
</svg>
